<?xml version="1.0" standalone="no"?>
<!DOCTYPE svg PUBLIC "-//W3C//DTD SVG 20010904//EN"
 "http://www.w3.org/TR/2001/REC-SVG-20010904/DTD/svg10.dtd">
<svg version="1.0" xmlns="http://www.w3.org/2000/svg"
 width="182.000000pt" height="182.000000pt" viewBox="0 0 182.000000 182.000000"
 preserveAspectRatio="xMidYMid meet">
<metadata>
Created by potrace 1.10, written by Peter Selinger 2001-2011
</metadata>
<g transform="translate(0.000000,182.000000) scale(0.100000,-0.100000)"
fill="#000000" stroke="none">
<path d="M786 1659 c-65 -87 -123 -159 -130 -159 -6 0 -93 12 -193 27 -101 14
-186 24 -190 20 -3 -4 5 -93 20 -199 14 -106 24 -195 21 -200 -3 -4 -71 -57
-152 -118 -81 -61 -148 -115 -150 -120 -2 -5 67 -61 152 -126 86 -64 156 -121
156 -127 0 -6 -12 -94 -26 -195 -14 -101 -23 -186 -20 -189 3 -4 88 6 188 21
101 14 188 26 194 26 6 0 66 -72 134 -160 l123 -160 76 104 c42 57 94 129 116
160 26 37 47 56 61 56 11 0 101 -11 199 -25 98 -14 181 -23 183 -20 3 2 -7 84
-22 182 -14 98 -26 186 -26 195 0 10 64 66 160 139 89 67 157 125 153 129 -20
17 -313 230 -316 230 -7 0 -312 -231 -315 -239 -1 -5 65 -59 148 -121 83 -62
149 -114 147 -116 -2 -3 -86 8 -186 22 -99 15 -184 24 -188 21 -3 -4 6 -91 20
-194 14 -103 25 -189 23 -190 -1 -1 -54 67 -117 152 -62 85 -117 154 -121 155
-5 0 -58 -67 -120 -150 -62 -82 -114 -147 -116 -145 -2 2 8 85 23 185 15 100
24 184 21 187 -3 3 -87 -6 -188 -20 -101 -13 -184 -23 -186 -22 -2 2 64 54
147 116 82 63 149 119 147 124 -1 6 -70 60 -153 120 -83 61 -145 111 -139 113
7 1 92 -9 191 -23 98 -13 181 -23 183 -20 2 2 -8 85 -23 185 -15 100 -25 183
-23 186 3 2 56 -63 119 -145 63 -83 117 -150 121 -151 4 0 58 70 119 155 62
85 114 153 115 152 1 -1 -8 -79 -21 -172 -14 -94 -25 -182 -25 -196 l0 -26
192 29 c105 15 193 30 196 32 5 6 62 389 58 393 -2 2 -92 -8 -200 -23 -108
-15 -198 -25 -200 -23 -1 2 -51 69 -111 149 -59 80 -113 150 -119 157 -8 8
-41 -29 -130 -148z"/>
</g>
</svg>
